<?xml version="1.0" encoding="UTF-8"?>
<!DOCTYPE svg PUBLIC "-//W3C//DTD SVG 1.1//EN" "http://www.w3.org/Graphics/SVG/1.1/DTD/svg11.dtd">
<svg xmlns="http://www.w3.org/2000/svg" version="1.1" width="131px" height="97px" style="shape-rendering:geometricPrecision; text-rendering:geometricPrecision; image-rendering:optimizeQuality; fill-rule:evenodd; clip-rule:evenodd" xmlns:xlink="http://www.w3.org/1999/xlink">
<g><path style="opacity:0.706" fill="#bcbcbc" d="M 108.5,10.5 C 110.792,7.29793 109.792,6.63127 105.5,8.5C 107.581,5.68202 110.248,5.01535 113.5,6.5C 112.395,8.6114 110.729,9.94473 108.5,10.5 Z"/></g>
<g><path style="opacity:0.98" fill="#606060" d="M 108.5,10.5 C 106.5,13.1667 104.167,15.5 101.5,17.5C 101.649,16.448 101.483,15.448 101,14.5C 99.6288,16.0414 98.1288,17.3747 96.5,18.5C 97.4194,15.9108 99.086,13.9108 101.5,12.5C 102.833,11.8333 103.833,10.8333 104.5,9.5C 104.5,8.83333 104.833,8.5 105.5,8.5C 109.792,6.63127 110.792,7.29793 108.5,10.5 Z"/></g>
<g><path style="opacity:0.224" fill="#e7e7e7" d="M 104.5,9.5 C 103.833,10.8333 102.833,11.8333 101.5,12.5C 101.5,10.5 102.5,9.5 104.5,9.5 Z"/></g>
<g><path style="opacity:0.999" fill="#565656" d="M 101.5,17.5 C 99.4884,20.205 97.4884,22.8717 95.5,25.5C 95.1667,25.5 94.8333,25.5 94.5,25.5C 93.391,25.5569 92.391,25.8902 91.5,26.5C 91.5,26.1667 91.5,25.8333 91.5,25.5C 91.9321,24.2905 92.5987,23.2905 93.5,22.5C 94.9063,22.0269 95.573,21.0269 95.5,19.5C 95.5,18.8333 95.8333,18.5 96.5,18.5C 98.1288,17.3747 99.6288,16.0414 101,14.5C 101.483,15.448 101.649,16.448 101.5,17.5 Z"/></g>
<g><path style="opacity:0.639" fill="#bfbfbf" d="M 95.5,19.5 C 95.573,21.0269 94.9063,22.0269 93.5,22.5C 93.427,20.9731 94.0937,19.9731 95.5,19.5 Z"/></g>
<g><path style="opacity:0.996" fill="#474747" d="M 86.5,24.5 C 86.5,24.8333 86.5,25.1667 86.5,25.5C 85.8333,25.5 85.5,25.8333 85.5,26.5C 76.3095,24.8034 67.3095,25.4701 58.5,28.5C 57.5084,28.6716 56.8417,28.3382 56.5,27.5C 59.3429,26.2289 62.3429,25.3955 65.5,25C 66.056,24.6174 66.3893,24.1174 66.5,23.5C 72.3188,22.3475 78.3188,22.1808 84.5,23C 85.4158,23.2784 86.0825,23.7784 86.5,24.5 Z"/></g>
<g><path style="opacity:0.137" fill="#cdcdcd" d="M 86.5,25.5 C 86.5,25.1667 86.5,24.8333 86.5,24.5C 87.8333,24.5 88.5,25.1667 88.5,26.5C 87.8333,26.1667 87.1667,25.8333 86.5,25.5 Z"/></g>
<g><path style="opacity:0.796" fill="#9a9a9a" d="M 66.5,23.5 C 66.3893,24.1174 66.056,24.6174 65.5,25C 62.3429,25.3955 59.3429,26.2289 56.5,27.5C 56.1667,27.5 55.8333,27.5 55.5,27.5C 56.0577,26.2101 57.0577,25.3768 58.5,25C 61.2066,24.6049 63.8733,24.1049 66.5,23.5 Z"/></g>
<g><path style="opacity:0.071" fill="#e9e9e9" d="M 85.5,26.5 C 87.7733,29.222 88.1067,32.222 86.5,35.5C 86.5,36.1667 86.1667,36.5 85.5,36.5C 87.9353,31.6217 86.6019,28.4551 81.5,27C 77.5,26.3333 73.5,26.3333 69.5,27C 63.6671,28.5561 58.0004,30.3894 52.5,32.5C 54.249,30.744 56.249,29.4106 58.5,28.5C 67.3095,25.4701 76.3095,24.8034 85.5,26.5 Z"/></g>
<g><path style="opacity:0.275" fill="#d1d1d1" d="M 54.5,27.5 C 53.3406,29.2503 51.674,30.2503 49.5,30.5C 50.6594,28.7497 52.326,27.7497 54.5,27.5 Z"/></g>
<g><path style="opacity:1" fill="#383838" d="M 54.5,27.5 C 54.8333,27.5 55.1667,27.5 55.5,27.5C 55.8333,27.5 56.1667,27.5 56.5,27.5C 56.8417,28.3382 57.5084,28.6716 58.5,28.5C 56.249,29.4106 54.249,30.744 52.5,32.5C 51.0413,32.4326 49.7079,32.7659 48.5,33.5C 47.791,32.596 46.791,32.2627 45.5,32.5C 46.5137,31.3263 47.847,30.6596 49.5,30.5C 51.674,30.2503 53.3406,29.2503 54.5,27.5 Z"/></g>
<g><path style="opacity:0.986" fill="#292929" d="M 86.5,25.5 C 87.1667,25.8333 87.8333,26.1667 88.5,26.5C 89.5,29.1667 90.5,29.1667 91.5,26.5C 92.391,25.8902 93.391,25.5569 94.5,25.5C 92.5593,29.0477 90.8926,32.7143 89.5,36.5C 88.391,36.4431 87.391,36.1098 86.5,35.5C 88.1067,32.222 87.7733,29.222 85.5,26.5C 85.5,25.8333 85.8333,25.5 86.5,25.5 Z"/></g>
<g><path style="opacity:0.369" fill="#dbdbdb" d="M 91.5,25.5 C 91.5,25.8333 91.5,26.1667 91.5,26.5C 90.5,29.1667 89.5,29.1667 88.5,26.5C 89.609,26.4431 90.609,26.1098 91.5,25.5 Z"/></g>
<g><path style="opacity:0.2" fill="#dedede" d="M 52.5,32.5 C 50.8185,34.0075 48.8185,35.0075 46.5,35.5C 46.8333,34.5 47.5,33.8333 48.5,33.5C 49.7079,32.7659 51.0413,32.4326 52.5,32.5 Z"/></g>
<g><path style="opacity:0.714" fill="#bbbbbb" d="M 45.5,32.5 C 45.0269,33.9063 44.0269,34.573 42.5,34.5C 42.9731,33.0937 43.9731,32.427 45.5,32.5 Z"/></g>
<g><path style="opacity:0.016" fill="#dedede" d="M 94.5,25.5 C 94.8333,25.5 95.1667,25.5 95.5,25.5C 94.2836,30.262 92.2836,34.5953 89.5,38.5C 89.5,37.8333 89.5,37.1667 89.5,36.5C 90.8926,32.7143 92.5593,29.0477 94.5,25.5 Z"/></g>
<g><path style="opacity:0.012" fill="#ececec" d="M 76.5,36.5 C 78.2729,39.676 77.2729,41.3427 73.5,41.5C 74.0262,38.1922 72.6928,36.0255 69.5,35C 65.5227,34.1206 61.8561,34.6206 58.5,36.5C 55.8333,37.1667 53.1667,37.8333 50.5,38.5C 50.2627,37.209 50.596,36.209 51.5,35.5C 51.369,36.2389 51.5357,36.9056 52,37.5C 57.659,33.831 63.8257,32.6643 70.5,34C 73.0405,35.0404 74.7071,36.8737 75.5,39.5C 76.3857,38.675 76.719,37.675 76.5,36.5 Z"/></g>
<g><path style="opacity:0.998" fill="#3f3f3f" d="M 86.5,35.5 C 87.391,36.1098 88.391,36.4431 89.5,36.5C 89.5,37.1667 89.5,37.8333 89.5,38.5C 88.2318,40.9052 87.5651,43.5718 87.5,46.5C 87.7678,48.099 87.4345,49.4324 86.5,50.5C 85.4625,51.9303 84.7959,53.597 84.5,55.5C 83.5489,54.0813 83.2155,52.4147 83.5,50.5C 83.2322,48.901 83.5655,47.5676 84.5,46.5C 85.782,45.2918 85.782,43.9584 84.5,42.5C 83.8165,42.8627 83.1499,43.1961 82.5,43.5C 82.5,43.1667 82.5,42.8333 82.5,42.5C 83.6005,41.3951 84.2671,40.0618 84.5,38.5C 84.3284,37.5084 84.6618,36.8417 85.5,36.5C 86.1667,36.5 86.5,36.1667 86.5,35.5 Z"/></g>
<g><path style="opacity:0.655" fill="#b3b3b3" d="M 40.5,35.5 C 39.7377,37.2624 38.4044,38.2624 36.5,38.5C 37.2623,36.7376 38.5956,35.7376 40.5,35.5 Z"/></g>
<g><path style="opacity:0.647" fill="#7a7a7a" d="M 76.5,36.5 C 76.719,37.675 76.3857,38.675 75.5,39.5C 74.7071,36.8737 73.0405,35.0404 70.5,34C 63.8257,32.6643 57.659,33.831 52,37.5C 51.5357,36.9056 51.369,36.2389 51.5,35.5C 57.6376,31.7265 64.3043,30.5598 71.5,32C 73.6605,32.9959 75.3272,34.4959 76.5,36.5 Z"/></g>
<g><path style="opacity:0.173" fill="#dddddd" d="M 46.5,35.5 C 41.9511,38.9563 37.6178,42.6229 33.5,46.5C 33.5,46.1667 33.5,45.8333 33.5,45.5C 35.8358,44.1391 37.5025,42.1391 38.5,39.5C 40.9553,37.7033 43.622,36.37 46.5,35.5 Z"/></g>
<g><path style="opacity:0.027" fill="#e8e8e8" d="M 58.5,37.5 C 61.204,37.6696 62.8707,39.0029 63.5,41.5C 62.5416,41.0472 61.7083,40.3805 61,39.5C 60.2736,42.288 58.4402,43.788 55.5,44C 57.5785,45.2697 57.9118,46.7697 56.5,48.5C 56.5,47.5 56.5,46.5 56.5,45.5C 55.5,45.5 54.5,45.5 53.5,45.5C 54.3543,47.035 54.3543,48.3684 53.5,49.5C 53.0679,48.2905 52.4013,47.2905 51.5,46.5C 49.8333,47.1667 48.1667,47.8333 46.5,48.5C 47.973,46.6053 49.6397,44.9387 51.5,43.5C 54.1794,42.7739 56.846,41.9406 59.5,41C 58.2068,40.51 56.8734,40.3433 55.5,40.5C 56.6085,39.71 57.9419,39.21 59.5,39C 58.944,38.6174 58.6107,38.1174 58.5,37.5 Z"/></g>
<g><path style="opacity:0.992" fill="#2b2b2b" d="M 45.5,32.5 C 46.791,32.2627 47.791,32.596 48.5,33.5C 47.5,33.8333 46.8333,34.5 46.5,35.5C 43.622,36.37 40.9553,37.7033 38.5,39.5C 37.5025,42.1391 35.8358,44.1391 33.5,45.5C 32.448,45.6495 31.448,45.4828 30.5,45C 31.2524,44.3292 31.5858,43.4959 31.5,42.5C 33.754,41.8763 35.4206,40.543 36.5,38.5C 38.4044,38.2624 39.7377,37.2624 40.5,35.5C 40.8417,34.6618 41.5084,34.3284 42.5,34.5C 44.0269,34.573 45.0269,33.9063 45.5,32.5 Z"/></g>
<g><path style="opacity:0.135" fill="#dbdbdb" d="M 89.5,38.5 C 89.7062,41.4951 89.0395,44.1617 87.5,46.5C 87.5651,43.5718 88.2318,40.9052 89.5,38.5 Z"/></g>
<g><path style="opacity:0.878" fill="#767676" d="M 84.5,38.5 C 84.2671,40.0618 83.6005,41.3951 82.5,42.5C 81.8333,42.5 81.1667,42.5 80.5,42.5C 81.5,40.8333 82.8333,39.5 84.5,38.5 Z"/></g>
<g><path style="opacity:0.049" fill="#d5d5d5" d="M 36.5,38.5 C 35.4206,40.543 33.754,41.8763 31.5,42.5C 30.5,43.1667 29.5,43.8333 28.5,44.5C 28.4142,43.5041 28.7476,42.6708 29.5,42C 31.8864,40.8068 34.2198,39.6401 36.5,38.5 Z"/></g>
<g><path style="opacity:0.961" fill="#494949" d="M 55.5,40.5 C 56.8734,40.3433 58.2068,40.51 59.5,41C 56.846,41.9406 54.1794,42.7739 51.5,43.5C 51.8333,42.8333 52.1667,42.1667 52.5,41.5C 53.209,40.596 54.209,40.2627 55.5,40.5 Z"/></g>
<g><path style="opacity:0.714" fill="#7c7c7c" d="M 58.5,37.5 C 58.5,37.1667 58.5,36.8333 58.5,36.5C 61.6305,35.9078 63.9639,36.9078 65.5,39.5C 68.4646,44.5175 67.9646,49.1841 64,53.5C 63.5172,52.552 63.3505,51.552 63.5,50.5C 65.8907,47.565 65.8907,44.565 63.5,41.5C 62.8707,39.0029 61.204,37.6696 58.5,37.5 Z"/></g>
<g><path style="opacity:0.169" fill="#efefef" d="M 80.5,42.5 C 79.8333,43.8333 78.8333,44.8333 77.5,45.5C 77.5,43.5 78.5,42.5 80.5,42.5 Z"/></g>
<g><path style="opacity:0.835" fill="#5d5d5d" d="M 31.5,42.5 C 31.5858,43.4959 31.2524,44.3292 30.5,45C 31.448,45.4828 32.448,45.6495 33.5,45.5C 33.5,45.8333 33.5,46.1667 33.5,46.5C 33.1583,47.3382 32.4916,47.6716 31.5,47.5C 29.9382,47.7329 28.6049,48.3995 27.5,49.5C 26.5084,49.6716 25.8417,49.3382 25.5,48.5C 25.7376,46.5956 26.7376,45.2623 28.5,44.5C 29.5,43.8333 30.5,43.1667 31.5,42.5 Z"/></g>
<g><path style="opacity:0.071" fill="#eaeaea" d="M 77.5,45.5 C 76.5637,46.9744 75.2303,47.9744 73.5,48.5C 74.0347,46.5544 75.368,45.5544 77.5,45.5 Z"/></g>
<g><path style="opacity:0.039" fill="#dcdcdc" d="M 84.5,46.5 C 84.44,45.9569 84.1067,45.6236 83.5,45.5C 81.3297,48.0119 78.663,49.6785 75.5,50.5C 78.027,48.3946 80.3603,46.0613 82.5,43.5C 83.1499,43.1961 83.8165,42.8627 84.5,42.5C 85.782,43.9584 85.782,45.2918 84.5,46.5 Z"/></g>
<g><path style="opacity:1" fill="#2d2d2d" d="M 80.5,42.5 C 81.1667,42.5 81.8333,42.5 82.5,42.5C 82.5,42.8333 82.5,43.1667 82.5,43.5C 80.3603,46.0613 78.027,48.3946 75.5,50.5C 73.5956,50.7376 72.2623,51.7376 71.5,53.5C 70.391,53.5569 69.391,53.8902 68.5,54.5C 68.1583,53.6618 67.4916,53.3284 66.5,53.5C 69.0903,52.2508 71.4236,50.5841 73.5,48.5C 75.2303,47.9744 76.5637,46.9744 77.5,45.5C 78.8333,44.8333 79.8333,43.8333 80.5,42.5 Z"/></g>
<g><path style="opacity:0.161" fill="#dedede" d="M 31.5,47.5 C 30.1667,49.5 28.5,51.1667 26.5,52.5C 26.5569,51.391 26.8902,50.391 27.5,49.5C 28.6049,48.3995 29.9382,47.7329 31.5,47.5 Z"/></g>
<g><path style="opacity:0.839" fill="#484848" d="M 53.5,45.5 C 54.5,45.5 55.5,45.5 56.5,45.5C 56.5,46.5 56.5,47.5 56.5,48.5C 56.5,48.8333 56.5,49.1667 56.5,49.5C 55.1619,51.1128 53.4952,51.6128 51.5,51C 52.0442,50.2828 52.7109,49.7828 53.5,49.5C 54.3543,48.3684 54.3543,47.035 53.5,45.5 Z"/></g>
<g><path style="opacity:0.008" fill="#e6e6e6" d="M 65.5,39.5 C 66.7899,40.0577 67.6232,41.0577 68,42.5C 68.3333,45.1667 68.6667,47.8333 69,50.5C 70.3297,49.4178 71.8297,48.7512 73.5,48.5C 71.4236,50.5841 69.0903,52.2508 66.5,53.5C 65.1667,54.1667 63.8333,54.8333 62.5,55.5C 62.762,54.0222 62.4287,52.6888 61.5,51.5C 59.736,53.2776 57.736,54.6109 55.5,55.5C 56.8333,53.8333 58.1667,52.1667 59.5,50.5C 61.8503,49.8897 61.517,49.5563 58.5,49.5C 60.3569,48.2348 62.0236,48.5682 63.5,50.5C 63.3505,51.552 63.5172,52.552 64,53.5C 67.9646,49.1841 68.4646,44.5175 65.5,39.5 Z"/></g>
<g><path style="opacity:0.851" fill="#868686" d="M 25.5,48.5 C 25.8417,49.3382 26.5084,49.6716 27.5,49.5C 26.8902,50.391 26.5569,51.391 26.5,52.5C 26.5,53.1667 26.1667,53.5 25.5,53.5C 25.6309,52.6236 25.2975,51.9569 24.5,51.5C 19.9744,54.2033 18.3077,58.2033 19.5,63.5C 17.6742,61.5449 17.1742,59.2116 18,56.5C 20.0001,53.3343 22.5001,50.6676 25.5,48.5 Z"/></g>
<g><path style="opacity:0.824" fill="#666666" d="M 52.5,41.5 C 52.1667,42.1667 51.8333,42.8333 51.5,43.5C 49.6397,44.9387 47.973,46.6053 46.5,48.5C 45.1667,49.1667 44.1667,50.1667 43.5,51.5C 43.5,52.1667 43.1667,52.5 42.5,52.5C 39.5426,54.0251 38.8759,53.3584 40.5,50.5C 43.4182,46.0426 47.4182,43.0426 52.5,41.5 Z"/></g>
<g><path style="opacity:0.004" fill="#f8f8f8" d="M 46.5,48.5 C 46.5,50.5 45.5,51.5 43.5,51.5C 44.1667,50.1667 45.1667,49.1667 46.5,48.5 Z"/></g>
<g><path style="opacity:0.031" fill="#e0e0e0" d="M 75.5,50.5 C 74.7377,52.2624 73.4044,53.2624 71.5,53.5C 72.2623,51.7376 73.5956,50.7376 75.5,50.5 Z"/></g>
<g><path style="opacity:0.161" fill="#d9d9d9" d="M 49.5,55.5 C 48.7494,56.5735 47.7494,56.7401 46.5,56C 47.8398,53.8215 47.5065,53.3215 45.5,54.5C 45.8212,52.9519 46.8212,52.2852 48.5,52.5C 48.2627,53.791 48.596,54.791 49.5,55.5 Z"/></g>
<g><path style="opacity:0.014" fill="#e2e2e2" d="M 51.5,46.5 C 52.4013,47.2905 53.0679,48.2905 53.5,49.5C 52.7109,49.7828 52.0442,50.2828 51.5,51C 53.4952,51.6128 55.1619,51.1128 56.5,49.5C 57.1667,49.5 57.8333,49.5 58.5,49.5C 61.517,49.5563 61.8503,49.8897 59.5,50.5C 55.8832,51.6417 52.5498,53.3084 49.5,55.5C 50.3234,52.5394 50.99,49.5394 51.5,46.5 Z"/></g>
<g><path style="opacity:0.51" fill="#bababa" d="M 41.5,62.5 C 33.1621,63.1125 29.9955,59.4458 32,51.5C 33.5707,49.0771 35.7374,47.7438 38.5,47.5C 38.4312,50.0842 37.2645,52.0842 35,53.5C 33.8588,56.8568 35.0254,58.8568 38.5,59.5C 40.1347,58.9537 41.8014,58.6204 43.5,58.5C 43.4729,60.1993 42.8062,61.5326 41.5,62.5 Z"/></g>
<g><path style="opacity:0.012" fill="#e4e4e4" d="M 40.5,50.5 C 38.8759,53.3584 39.5426,54.0251 42.5,52.5C 41.8166,54.1765 40.4832,54.8432 38.5,54.5C 38.2291,52.6203 38.8958,51.287 40.5,50.5 Z"/></g>
<g><path style="opacity:0.027" fill="#d3d3d3" d="M 86.5,50.5 C 86.7406,52.8984 86.0739,54.8984 84.5,56.5C 84.5,56.1667 84.5,55.8333 84.5,55.5C 84.7959,53.597 85.4625,51.9303 86.5,50.5 Z"/></g>
<g><path style="opacity:0.997" fill="#242424" d="M 25.5,53.5 C 21.742,54.6963 20.4086,57.0296 21.5,60.5C 21.427,62.0269 22.0937,63.0269 23.5,63.5C 23.5,64.5 23.5,65.5 23.5,66.5C 23.1667,66.5 22.8333,66.5 22.5,66.5C 21.8333,65.1667 20.8333,64.1667 19.5,63.5C 18.3077,58.2033 19.9744,54.2033 24.5,51.5C 25.2975,51.9569 25.6309,52.6236 25.5,53.5 Z"/></g>
<g><path style="opacity:0.259" fill="#cecece" d="M 71.5,53.5 C 70.3406,55.2503 68.674,56.2503 66.5,56.5C 66.8333,55.5 67.5,54.8333 68.5,54.5C 69.391,53.8902 70.391,53.5569 71.5,53.5 Z"/></g>
<g><path style="opacity:0.161" fill="#cfcfcf" d="M 25.5,53.5 C 23.4224,55.3904 22.0891,57.7238 21.5,60.5C 20.4086,57.0296 21.742,54.6963 25.5,53.5 Z"/></g>
<g><path style="opacity:0.318" fill="#eaeaea" d="M 45.5,55.5 C 45.427,57.0269 46.0937,58.0269 47.5,58.5C 46.8106,59.7736 45.9772,59.7736 45,58.5C 44.2599,57.2506 44.4265,56.2506 45.5,55.5 Z"/></g>
<g><path style="opacity:1" fill="#444444" d="M 59.5,50.5 C 58.1667,52.1667 56.8333,53.8333 55.5,55.5C 53.1815,55.9925 51.1815,56.9925 49.5,58.5C 48.8333,58.5 48.1667,58.5 47.5,58.5C 46.0937,58.0269 45.427,57.0269 45.5,55.5C 45.5,55.1667 45.5,54.8333 45.5,54.5C 47.5065,53.3215 47.8398,53.8215 46.5,56C 47.7494,56.7401 48.7494,56.5735 49.5,55.5C 52.5498,53.3084 55.8832,51.6417 59.5,50.5 Z"/></g>
<g><path style="opacity:0.098" fill="#dfdfdf" d="M 55.5,55.5 C 55.1667,56.1667 54.8333,56.8333 54.5,57.5C 52.8828,58.038 51.2161,58.3713 49.5,58.5C 51.1815,56.9925 53.1815,55.9925 55.5,55.5 Z"/></g>
<g><path style="opacity:0.951" fill="#727272" d="M 83.5,50.5 C 83.2155,52.4147 83.5489,54.0813 84.5,55.5C 84.5,55.8333 84.5,56.1667 84.5,56.5C 84.6716,57.4916 84.3382,58.1583 83.5,58.5C 81.9988,59.4427 80.6654,59.1094 79.5,57.5C 81.5638,55.5082 82.8971,53.1748 83.5,50.5 Z"/></g>
<g><path style="opacity:0.086" fill="#e3e3e3" d="M 66.5,56.5 C 66.0269,57.9063 65.0269,58.573 63.5,58.5C 63.9731,57.0937 64.9731,56.427 66.5,56.5 Z"/></g>
<g><path style="opacity:0.812" fill="#959595" d="M 62.5,55.5 C 61.9094,56.1515 61.2427,56.8182 60.5,57.5C 57.1222,58.5905 53.7889,59.5905 50.5,60.5C 52.0764,59.8571 53.4097,58.8571 54.5,57.5C 57.1667,56.8333 59.8333,56.1667 62.5,55.5 Z"/></g>
<g><path style="opacity:0.106" fill="#d4d4d4" d="M 63.5,58.5 C 61.6051,60.2413 59.2718,61.2413 56.5,61.5C 58.3949,59.7587 60.7282,58.7587 63.5,58.5 Z"/></g>
<g><path style="opacity:0.749" fill="#b0b0b0" d="M 50.5,60.5 C 49.4863,61.6737 48.153,62.3404 46.5,62.5C 45.8333,62.5 45.1667,62.5 44.5,62.5C 46.2143,61.2616 48.2143,60.595 50.5,60.5 Z"/></g>
<g><path style="opacity:0.999" fill="#212121" d="M 66.5,53.5 C 67.4916,53.3284 68.1583,53.6618 68.5,54.5C 67.5,54.8333 66.8333,55.5 66.5,56.5C 64.9731,56.427 63.9731,57.0937 63.5,58.5C 60.7282,58.7587 58.3949,59.7587 56.5,61.5C 53.5739,62.4608 50.5739,63.1274 47.5,63.5C 46.8333,63.5 46.5,63.1667 46.5,62.5C 48.153,62.3404 49.4863,61.6737 50.5,60.5C 53.7889,59.5905 57.1222,58.5905 60.5,57.5C 61.2427,56.8182 61.9094,56.1515 62.5,55.5C 63.8333,54.8333 65.1667,54.1667 66.5,53.5 Z"/></g>
<g><path style="opacity:0.824" fill="#a0a0a0" d="M 79.5,57.5 C 80.6654,59.1094 81.9988,59.4427 83.5,58.5C 81.6932,62.1136 79.8599,65.7802 78,69.5C 77.3292,70.2524 76.4959,70.5858 75.5,70.5C 79.6369,67.0233 79.3036,64.3566 74.5,62.5C 75.8333,60.5 77.5,58.8333 79.5,57.5 Z"/></g>
<g><path style="opacity:0.357" fill="#e2e2e2" d="M 21.5,60.5 C 22.9063,60.9731 23.573,61.9731 23.5,63.5C 22.0937,63.0269 21.427,62.0269 21.5,60.5 Z"/></g>
<g><path style="opacity:0.031" fill="#d4d4d4" d="M 19.5,63.5 C 20.8333,64.1667 21.8333,65.1667 22.5,66.5C 21.8333,66.5 21.1667,66.5 20.5,66.5C 19.8902,65.609 19.5569,64.609 19.5,63.5 Z"/></g>
<g><path style="opacity:0.995" fill="#494949" d="M 41.5,62.5 C 42.5,62.5 43.5,62.5 44.5,62.5C 45.1667,62.5 45.8333,62.5 46.5,62.5C 46.5,63.1667 46.8333,63.5 47.5,63.5C 45.7392,64.3127 44.0725,65.3127 42.5,66.5C 36.1502,67.5874 29.8169,67.5874 23.5,66.5C 23.5,65.5 23.5,64.5 23.5,63.5C 29.7079,64.9624 35.7079,64.6291 41.5,62.5 Z"/></g>
<g><path style="opacity:0.094" fill="#d0d0d0" d="M 56.5,61.5 C 52.3422,64.3324 47.6755,65.999 42.5,66.5C 44.0725,65.3127 45.7392,64.3127 47.5,63.5C 50.5739,63.1274 53.5739,62.4608 56.5,61.5 Z"/></g>
<g><path style="opacity:0.675" fill="#b2b2b2" d="M 74.5,62.5 C 73.5806,65.0892 71.914,67.0892 69.5,68.5C 70.4194,65.9108 72.086,63.9108 74.5,62.5 Z"/></g>
<g><path style="opacity:0.675" fill="#c6c6c6" d="M 20.5,66.5 C 20.8417,67.3382 21.5084,67.6716 22.5,67.5C 23.6005,68.6049 24.2671,69.9382 24.5,71.5C 25.1667,71.1667 25.8333,70.8333 26.5,70.5C 26.5,71.1667 26.5,71.8333 26.5,72.5C 22.5957,74.3495 19.9291,73.1829 18.5,69C 18.6387,67.699 19.3054,66.8656 20.5,66.5 Z"/></g>
<g><path style="opacity:0.518" fill="#bdbdbd" d="M 22.5,67.5 C 22.5,67.1667 22.5,66.8333 22.5,66.5C 22.8333,66.5 23.1667,66.5 23.5,66.5C 29.8169,67.5874 36.1502,67.5874 42.5,66.5C 36.061,68.747 29.3944,69.0804 22.5,67.5 Z"/></g>
<g><path style="opacity:0.127" fill="#e7e7e7" d="M 26.5,70.5 C 29.2104,69.146 30.8771,70.146 31.5,73.5C 30.0209,72.241 28.3542,71.241 26.5,70.5 Z"/></g>
<g><path style="opacity:0.973" fill="#2c2c2c" d="M 24.5,71.5 C 24.1034,72.525 23.4368,72.6917 22.5,72C 20.9926,71.1627 20.4926,69.9961 21,68.5C 22.0391,69.7101 23.2058,70.7101 24.5,71.5 Z"/></g>
<g><path style="opacity:0.463" fill="#c0c0c0" d="M 69.5,68.5 C 68.4726,70.1942 67.1392,71.5275 65.5,72.5C 64.1667,72.8333 62.8333,73.1667 61.5,73.5C 63.6291,71.0499 66.2957,69.3833 69.5,68.5 Z"/></g>
<g><path style="opacity:0.961" fill="#323232" d="M 74.5,62.5 C 79.3036,64.3566 79.6369,67.0233 75.5,70.5C 74.4206,72.543 72.754,73.8763 70.5,74.5C 69.475,74.1034 69.3083,73.4368 70,72.5C 71.1667,71.3333 72.3333,70.1667 73.5,69C 72.8333,68.3333 72.1667,68.3333 71.5,69C 70.2949,70.3756 68.9616,71.5423 67.5,72.5C 66.8333,72.5 66.1667,72.5 65.5,72.5C 67.1392,71.5275 68.4726,70.1942 69.5,68.5C 71.914,67.0892 73.5806,65.0892 74.5,62.5 Z"/></g>
<g><path style="opacity:0.992" fill="#717171" d="M 26.5,70.5 C 28.3542,71.241 30.0209,72.241 31.5,73.5C 33.153,73.6596 34.4863,74.3263 35.5,75.5C 33.7741,75.1854 32.1075,75.0187 30.5,75C 31.3805,75.7083 32.0472,76.5416 32.5,77.5C 29.9108,76.5806 27.9108,74.914 26.5,72.5C 26.5,71.8333 26.5,71.1667 26.5,70.5 Z"/></g>
<g><path style="opacity:0.384" fill="#cdcdcd" d="M 70.5,74.5 C 70.44,75.0431 70.1067,75.3764 69.5,75.5C 68.8182,74.7573 68.1515,74.0906 67.5,73.5C 67.5,73.1667 67.5,72.8333 67.5,72.5C 68.9616,71.5423 70.2949,70.3756 71.5,69C 72.1667,68.3333 72.8333,68.3333 73.5,69C 72.3333,70.1667 71.1667,71.3333 70,72.5C 69.3083,73.4368 69.475,74.1034 70.5,74.5 Z"/></g>
<g><path style="opacity:0.904" fill="#4b4b4b" d="M 65.5,72.5 C 66.1667,72.5 66.8333,72.5 67.5,72.5C 67.5,72.8333 67.5,73.1667 67.5,73.5C 66.7377,75.2624 65.4044,76.2624 63.5,76.5C 61.597,76.7959 59.9303,77.4625 58.5,78.5C 56.351,79.7362 54.0177,80.7362 51.5,81.5C 52.5063,80.6043 52.5063,79.9377 51.5,79.5C 55.1323,78.0164 58.4656,76.0164 61.5,73.5C 62.8333,73.1667 64.1667,72.8333 65.5,72.5 Z"/></g>
<g><path style="opacity:1" fill="#343434" d="M 35.5,75.5 C 36.4916,75.3284 37.1583,75.6618 37.5,76.5C 38.6002,77.5585 39.9336,78.3918 41.5,79C 44.8168,79.4983 48.1501,79.665 51.5,79.5C 52.5063,79.9377 52.5063,80.6043 51.5,81.5C 48.1667,81.5 44.8333,81.5 41.5,81.5C 39.3024,81.1249 37.3024,80.4582 35.5,79.5C 35.0269,78.0937 34.0269,77.427 32.5,77.5C 32.0472,76.5416 31.3805,75.7083 30.5,75C 32.1075,75.0187 33.7741,75.1854 35.5,75.5 Z"/></g>
<g><path style="opacity:0.082" fill="#e3e3e3" d="M 63.5,76.5 C 62.3646,78.2132 60.698,78.8799 58.5,78.5C 59.9303,77.4625 61.597,76.7959 63.5,76.5 Z"/></g>
<g><path style="opacity:0.529" fill="#bfbfbf" d="M 32.5,77.5 C 34.0269,77.427 35.0269,78.0937 35.5,79.5C 33.9731,79.573 32.9731,78.9063 32.5,77.5 Z"/></g>
<g><path style="opacity:0.439" fill="#cccccc" d="M 61.5,73.5 C 58.4656,76.0164 55.1323,78.0164 51.5,79.5C 48.1501,79.665 44.8168,79.4983 41.5,79C 39.9336,78.3918 38.6002,77.5585 37.5,76.5C 40.4175,77.4538 43.4175,78.1205 46.5,78.5C 51.7959,77.6835 56.7959,76.0169 61.5,73.5 Z"/></g>
<g><path style="opacity:0.475" fill="#cbcbcb" d="M 41.5,81.5 C 44.8333,81.5 48.1667,81.5 51.5,81.5C 48.6932,82.9216 45.8599,83.9216 43,84.5C 41.9614,83.7562 41.4614,82.7562 41.5,81.5 Z"/></g>
</svg>
